<svg xmlns="http://www.w3.org/2000/svg" fill="none" viewBox="-0.5 -0.5 24 24" id="drop-icon.svg"><path  d="M4.552083333333334 19.645833333333336h13.895833333333334c0.20364583333333333 0 0.37437291666666667 0.06933541666666666 0.5122291666666666 0.20795833333333333 0.13766458333333334 0.13847916666666665 0.20652083333333335 0.31016458333333335 0.20652083333333335 0.5151041666666667 0 0.20474791666666667 -0.06885625 0.37504375 -0.20652083333333335 0.5107916666666668 -0.13785625 0.13574791666666666 -0.3085833333333334 0.20364583333333333 -0.5122291666666666 0.20364583333333333h-13.895833333333334c-0.20364583333333333 0 -0.374310625 -0.06933541666666666 -0.5119895833333333 -0.20795833333333333C3.9022518749999997 20.736895833333335 3.8333333333333335 20.56521041666667 3.8333333333333335 20.360270833333335c0 -0.20474791666666667 0.06891854166666668 -0.37504375 0.20676041666666667 -0.5107916666666668C4.177772708333333 19.713731250000002 4.3484375 19.645833333333336 4.552083333333334 19.645833333333336Zm6.923958333333333 -2.8510416666666667c-0.10508125 0 -0.20723958333333334 -0.019981250000000002 -0.30642708333333335 -0.059895833333333336 -0.0991875 -0.03991458333333334 -0.18869583333333334 -0.1078125 -0.26857291666666666 -0.20364583333333333l-5.222916666666667 -6.7562500000000005c-0.17571041666666667 -0.23958333333333334 -0.20364583333333333 -0.49114583333333334 -0.08385416666666666 -0.7546875S5.925710416666667 8.625 6.229166666666667 8.625h2.371875V2.635416666666667c0 -0.20364583333333333 0.06890416666666667 -0.3743872916666667 0.20676041666666667 -0.5122291666666666C8.945466666666668 1.985508541666667 9.116145833333333 1.9166666666666667 9.319791666666667 1.9166666666666667h4.3125c0.20364583333333333 0 0.37437291666666667 0.068841875 0.5122291666666666 0.20652083333333335 0.13766458333333334 0.137841875 0.20652083333333335 0.3085833333333334 0.20652083333333335 0.5122291666666666V8.625h2.3958333333333335c0.30345625 0 0.5151041666666667 0.13177083333333334 0.6348958333333333 0.3953125 0.11979166666666667 0.2635416666666667 0.09185625000000001 0.5151041666666667 -0.08385416666666666 0.7546875L12.051041666666666 16.53125c-0.07987708333333333 0.09583333333333334 -0.16938541666666668 0.16373125 -0.26857291666666666 0.20364583333333333 -0.0991875 0.03991458333333334 -0.20134583333333336 0.059895833333333336 -0.30642708333333335 0.059895833333333336Z" stroke-width="1"></path></svg>