<svg xmlns="http://www.w3.org/2000/svg" fill="none" viewBox="-0.5 -0.5 24 24" id="grid-icon"><path d="M2.875 20.125V2.875h17.25v17.25H2.875Zm1.4375 -1.4375h3.8333333333333335v-3.8333333333333335H4.3125v3.8333333333333335Zm5.270833333333334 0h3.8333333333333335v-3.8333333333333335h-3.8333333333333335v3.8333333333333335Zm5.270833333333334 0h3.8333333333333335v-3.8333333333333335h-3.8333333333333335v3.8333333333333335ZM4.3125 13.416666666666668h3.8333333333333335v-3.8333333333333335H4.3125v3.8333333333333335Zm5.270833333333334 0h3.8333333333333335v-3.8333333333333335h-3.8333333333333335v3.8333333333333335Zm5.270833333333334 0h3.8333333333333335v-3.8333333333333335h-3.8333333333333335v3.8333333333333335ZM4.3125 8.145833333333334h3.8333333333333335V4.3125H4.3125v3.8333333333333335Zm5.270833333333334 0h3.8333333333333335V4.3125h-3.8333333333333335v3.8333333333333335Zm5.270833333333334 0h3.8333333333333335V4.3125h-3.8333333333333335v3.8333333333333335Z" stroke-width="1"></path></svg>