<svg xmlns="http://www.w3.org/2000/svg" fill="none" viewBox="-0.5 -0.5 24 24" id="loading-icon.svg"><path d="M11.5 21.083333333333336c-1.3416666666666666 0 -2.5955020833333333 -0.2475854166666667 -3.761458333333333 -0.7427083333333334S5.558333333333334 19.166666666666668 4.695833333333334 18.304166666666667c-0.8625 -0.8625 -1.5413210416666667 -1.8767520833333335 -2.0364583333333335 -3.042708333333333C2.1642377083333337 14.095502083333333 1.9166666666666667 12.841666666666667 1.9166666666666667 11.5c0 -1.3373541666666666 0.24757104166666666 -2.5900395833333336 0.7427083333333334 -3.7581041666666666C3.154512291666667 6.5736875 3.8333333333333335 5.558333333333334 4.695833333333334 4.695833333333334c0.8625 -0.8625 1.8767520833333335 -1.5413210416666667 3.042708333333333 -2.0364583333333335C8.904497916666667 2.1642377083333337 10.158333333333333 1.9166666666666667 11.5 1.9166666666666667v1.4375c-2.2570187500000003 0 -4.17895625 0.7928627083333334 -5.7658125 2.3785833333333337C4.147508541666667 7.3184562500000006 3.354166666666667 9.239147916666667 3.354166666666667 11.494729166666668s0.7928627083333334 4.177997916666667 2.3785833333333337 5.76725C7.3184562500000006 18.85123125 9.239147916666667 19.645833333333336 11.494729166666668 19.645833333333336s4.177997916666667 -0.79335625 5.76725 -2.380020833333333C18.85123125 15.67895625 19.645833333333336 13.75701875 19.645833333333336 11.5h1.4375c0 1.3416666666666666 -0.2475854166666667 2.5955020833333333 -0.7427083333333334 3.761458333333333S19.166666666666668 17.441666666666666 18.304166666666667 18.304166666666667c-0.8625 0.8625 -1.8778541666666668 1.5413354166666666 -3.0460625 2.0364583333333335C14.090039583333335 20.835747916666666 12.837354166666668 21.083333333333336 11.5 21.083333333333336Z" stroke-width="1"></path></svg>