<svg xmlns="http://www.w3.org/2000/svg" fill="none" viewBox="0 0 24 24" id="move.svg">
  <g>
    <path fill-rule="evenodd" d="M16.5002 7.59997L12.0002 3.09998L7.50024 7.59997L8.95025 9.04997L12.0002 5.99997L15.0502 9.04998L16.5002 7.59997ZM16.5002 16.5L15.0502 15.05L12.0002 18.1L8.95024 15.05L7.50024 16.5L12.0002 21L16.5002 16.5ZM10.55 12.0498C10.55 11.6331 10.6959 11.2789 10.9875 10.9873C11.2792 10.6956 11.6334 10.5498 12.05 10.5498C12.4667 10.5498 12.8209 10.6956 13.1125 10.9873C13.4042 11.2789 13.55 11.6331 13.55 12.0498C13.55 12.4664 13.4042 12.8206 13.1125 13.1123C12.8209 13.4039 12.4667 13.5498 12.05 13.5498C11.6334 13.5498 11.2792 13.4039 10.9875 13.1123C10.6959 12.8206 10.55 12.4664 10.55 12.0498Z" clip-rule="evenodd" stroke-width="1"></path>
  </g>
</svg>