<svg xmlns="http://www.w3.org/2000/svg" fill="none" viewBox="-0.5 -0.5 24 24" id="person-icon"><path d="M10.0625 21.083333333333336V14.375h-1.9166666666666667V6.876041666666667h6.708333333333334V14.375h-1.9166666666666667v6.708333333333334h-2.875Zm1.4394166666666668 -15.668750000000003c-0.48046041666666667 0 -0.8923520833333334 -0.1710625 -1.2357708333333335 -0.5131875 -0.34341875 -0.342125 -0.5151041666666667 -0.753408125 -0.5151041666666667 -1.2338541666666667 0 -0.48044604166666666 0.1710625 -0.8923664583333334 0.5131875 -1.2357708333333335C10.606354166666668 2.0883664583333332 11.017622916666667 1.9166666666666667 11.498083333333334 1.9166666666666667c0.48046041666666667 0 0.8923520833333334 0.1710625 1.2357708333333335 0.5131875 0.34341875 0.342125 0.5151041666666667 0.753408125 0.5151041666666667 1.2338541666666667 0 0.48044604166666666 -0.1710625 0.8923664583333334 -0.5131875 1.2357708333333335 -0.342125 0.34341875 -0.7533937500000001 0.5151041666666667 -1.2338541666666667 0.5151041666666667Z" stroke-width="1"></path></svg>