<svg xmlns="http://www.w3.org/2000/svg" fill="none" viewBox="-0.5 -0.5 24 24" id="person-icon.svg" ><path d="M11.501916666666668 3.497916666666667c-0.48046041666666667 0 -0.8923520833333334 -0.1710625 -1.2357708333333335 -0.5131875 -0.34341875 -0.342125 -0.5151041666666667 -0.753408125 -0.5151041666666667 -1.2338541666666667 0 -0.48044604166666666 0.1710625 -0.8923664583333334 0.5131875 -1.2357708333333335C10.606354166666668 0.1717012291666667 11.017622916666667 0 11.498083333333334 0c0.48046041666666667 0 0.8923520833333334 0.17106202083333336 1.2357708333333335 0.5131875 0.34341875 0.342125 0.5151041666666667 0.753408125 0.5151041666666667 1.2338541666666667 0 0.48044604166666666 -0.1710625 0.8923664583333334 -0.5131875 1.2357708333333335 -0.342125 0.34340437500000004 -0.7533937500000001 0.5151041666666667 -1.2338541666666667 0.5151041666666667ZM9.008333333333335 18.208333333333336V6.372916666666668c-1.00625 -0.07987708333333333 -2.0205020833333336 -0.19564375 -3.042708333333333 -0.34739583333333335 -1.0222062500000002 -0.15175208333333334 -1.9725710416666669 -0.33939375000000005 -2.8510416666666667 -0.5630208333333334l0.359375 -1.4375c1.277779375 0.3194460416666667 2.5914770833333334 0.5510416666666667 3.941145833333333 0.6947916666666667 1.34966875 0.14375 2.71126875 0.215625 4.084895833333333 0.215625 1.3736270833333333 0 2.7352270833333336 -0.071875 4.084895833333333 -0.215625 1.34966875 -0.14375 2.6633520833333333 -0.375345625 3.941145833333333 -0.6947916666666667l0.359375 1.4375c-0.87845625 0.22362708333333334 -1.8288354166666667 0.41126875 -2.8510416666666667 0.5630208333333334 -1.0222062500000002 0.15175208333333334 -2.0364583333333335 0.26866875 -3.042708333333333 0.35075V18.208333333333336h-1.4375V12.3625h-2.1083333333333334V18.208333333333336h-1.4375Zm-1.4135416666666667 4.791666666666667c-0.27154375000000003 0 -0.49114583333333334 -0.08385416666666666 -0.6588541666666667 -0.2515625 -0.16770833333333332 -0.16770833333333332 -0.2515625 -0.3873104166666667 -0.2515625 -0.6588541666666667s0.08385416666666666 -0.49114583333333334 0.2515625 -0.6588541666666667c0.16770833333333332 -0.16770833333333332 0.3873104166666667 -0.2515625 0.6588541666666667 -0.2515625s0.49114583333333334 0.08385416666666666 0.6588541666666667 0.2515625c0.16770833333333332 0.16770833333333332 0.2515625 0.3873104166666667 0.2515625 0.6588541666666667s-0.08385416666666666 0.49114583333333334 -0.2515625 0.6588541666666667c-0.16770833333333332 0.16770833333333332 -0.3873104166666667 0.2515625 -0.6588541666666667 0.2515625Zm3.9291666666666667 0c-0.27154375000000003 0 -0.49114583333333334 -0.08385416666666666 -0.6588541666666667 -0.2515625 -0.16770833333333332 -0.16770833333333332 -0.2515625 -0.3873104166666667 -0.2515625 -0.6588541666666667s0.08385416666666666 -0.49114583333333334 0.2515625 -0.6588541666666667c0.16770833333333332 -0.16770833333333332 0.3873104166666667 -0.2515625 0.6588541666666667 -0.2515625s0.49114583333333334 0.08385416666666666 0.6588541666666667 0.2515625c0.16770833333333332 0.16770833333333332 0.2515625 0.3873104166666667 0.2515625 0.6588541666666667s-0.08385416666666666 0.49114583333333334 -0.2515625 0.6588541666666667c-0.16770833333333332 0.16770833333333332 -0.3873104166666667 0.2515625 -0.6588541666666667 0.2515625Zm3.9291666666666667 0c-0.27154375000000003 0 -0.49114583333333334 -0.08385416666666666 -0.6588541666666667 -0.2515625 -0.16770833333333332 -0.16770833333333332 -0.2515625 -0.3873104166666667 -0.2515625 -0.6588541666666667s0.08385416666666666 -0.49114583333333334 0.2515625 -0.6588541666666667c0.16770833333333332 -0.16770833333333332 0.3873104166666667 -0.2515625 0.6588541666666667 -0.2515625s0.49114583333333334 0.08385416666666666 0.6588541666666667 0.2515625c0.16770833333333332 0.16770833333333332 0.2515625 0.3873104166666667 0.2515625 0.6588541666666667s-0.08385416666666666 0.49114583333333334 -0.2515625 0.6588541666666667c-0.16770833333333332 0.16770833333333332 -0.3873104166666667 0.2515625 -0.6588541666666667 0.2515625Z" stroke-width="1"></path></svg>