<svg xmlns="http://www.w3.org/2000/svg" fill="none" viewBox="-0.5 -0.5 24 24" id="picture-icon.svg"><path  d="M4.3125 20.125c-0.38333333333333336 0 -0.71875 -0.14375 -1.00625 -0.43125 -0.2875 -0.2875 -0.43125 -0.6229166666666667 -0.43125 -1.00625V12.21875h1.4375V18.6875h6.46875v1.4375H4.3125Zm7.90625 0v-1.4375H18.6875V12.21875h1.4375V18.6875c0 0.38333333333333336 -0.14375 0.71875 -0.43125 1.00625 -0.2875 0.2875 -0.6229166666666667 0.43125 -1.00625 0.43125H12.21875Zm-6.540625 -3.545833333333334 2.8270833333333334 -3.6416666666666666 2.2281250000000004 3.042708333333333L13.895833333333334 11.883333333333335l3.521875 4.695833333333334h-11.739583333333334ZM2.875 10.78125V4.3125c0 -0.38333333333333336 0.14375 -0.71875 0.43125 -1.00625C3.59375 3.01875 3.9291666666666667 2.875 4.3125 2.875h6.46875v1.4375H4.3125v6.46875H2.875Zm15.8125 0V4.3125H12.21875V2.875H18.6875c0.38333333333333336 0 0.71875 0.14375 1.00625 0.43125 0.2875 0.2875 0.43125 0.6229166666666667 0.43125 1.00625v6.46875h-1.4375Zm-3.7375000000000003 -1.4375c-0.37375 0 -0.6828125 -0.1221875 -0.9271875 -0.3665625S13.65625 8.42375 13.65625 8.05s0.1221875 -0.6828125 0.3665625 -0.9271875S14.576250000000002 6.7562500000000005 14.950000000000001 6.7562500000000005s0.6828125 0.1221875 0.9271875 0.3665625 0.3665625 0.5534375 0.3665625 0.9271875 -0.1221875 0.6828125 -0.3665625 0.9271875 -0.5534375 0.3665625 -0.9271875 0.3665625Z" stroke-width="1"></path></svg>