<svg xmlns="http://www.w3.org/2000/svg" fill="none" viewBox="-0.5 -0.5 24 24" id="picture-icon.svg"><path d="M5.654166666666667 16.363541666666666h11.715625l-3.521875 -4.695833333333334 -3.1625 4.096875000000001 -2.2281250000000004 -3.042708333333333 -2.803125 3.6416666666666666ZM2.875 20.125V2.875h17.25v17.25H2.875Zm1.4375 -1.4375h14.375V4.3125H4.3125v14.375Zm3.8362083333333334 -9.34375c0.33349999999999996 0 0.6160645833333334 -0.11677291666666667 0.8476458333333333 -0.35027083333333336 0.23158125000000002 -0.2334979166666667 0.34739583333333335 -0.5170208333333334 0.34739583333333335 -0.8505208333333333s-0.11677291666666667 -0.6160645833333334 -0.35027083333333336 -0.8476458333333333c-0.2334979166666667 -0.23158125000000002 -0.5170208333333334 -0.34739583333333335 -0.8505208333333333 -0.34739583333333335s-0.6160645833333334 0.11677291666666667 -0.8476458333333333 0.35027083333333336c-0.23158125000000002 0.2334979166666667 -0.34739583333333335 0.5170208333333334 -0.34739583333333335 0.8505208333333333s0.11677291666666667 0.6160645833333334 0.35027083333333336 0.8476458333333333c0.2334979166666667 0.23158125000000002 0.5170208333333334 0.34739583333333335 0.8505208333333333 0.34739583333333335Z" stroke-width="1"></path></svg>