<svg xmlns="http://www.w3.org/2000/svg" fill="none" viewBox="-0.5 -0.5 24 24" id="icon-grid"><path d="M6.828125 20.125v-1.4375h1.4375v1.4375h-1.4375ZM2.875 4.3125V2.875h1.4375v1.4375H2.875Zm3.953125 0V2.875h1.4375v1.4375h-1.4375Zm3.953125 15.8125v-1.4375h1.4375v1.4375h-1.4375Zm0 -15.8125V2.875h1.4375v1.4375h-1.4375Zm3.953125 0V2.875h1.4375v1.4375h-1.4375Zm0 15.8125v-1.4375h1.4375v1.4375h-1.4375ZM18.6875 4.3125V2.875h1.4375v1.4375h-1.4375ZM2.875 20.125v-1.4375h1.4375v1.4375H2.875Zm0 -3.953125v-1.4375h1.4375v1.4375H2.875Zm0 -3.953125v-1.4375h1.4375v1.4375H2.875Zm0 -3.953125v-1.4375h1.4375v1.4375H2.875ZM18.6875 20.125v-1.4375h1.4375v1.4375h-1.4375Zm0 -3.953125v-1.4375h1.4375v1.4375h-1.4375Zm0 -3.953125v-1.4375h1.4375v1.4375h-1.4375Zm0 -3.953125v-1.4375h1.4375v1.4375h-1.4375Z" stroke-width="1"></path></svg>