<svg xmlns="http://www.w3.org/2000/svg" fill="none" viewBox="-0.5 -0.5 24 24" id="preview-icon.svg"><path d="M11.502875000000001 15.09375c1.1321270833333332 0 2.0934791666666666 -0.39627083333333335 2.884104166666667 -1.1888125 0.790625 -0.7925416666666667 1.1859375 -1.7548520833333334 1.1859375 -2.886979166666667 0 -1.1321270833333332 -0.39627083333333335 -2.0934791666666666 -1.1888125 -2.884104166666667 -0.7925416666666667 -0.790625 -1.7548520833333334 -1.1859375 -2.886979166666667 -1.1859375 -1.1321270833333332 0 -2.0934791666666666 0.39627083333333335 -2.884104166666667 1.1888125 -0.790625 0.7925416666666667 -1.1859375 1.7548520833333334 -1.1859375 2.886979166666667 0 1.1321270833333332 0.39627083333333335 2.0934791666666666 1.1888125 2.884104166666667 0.7925416666666667 0.790625 1.7548520833333334 1.1859375 2.886979166666667 1.1859375Zm-0.008624999999999999 -1.3895833333333334c-0.7468770833333334 0 -1.3798562500000002 -0.26148125 -1.8989375000000002 -0.7843958333333334 -0.5190812499999999 -0.5227708333333333 -0.7786458333333334 -1.1576666666666666 -0.7786458333333334 -1.9046875 0 -0.7468770833333334 0.26148125 -1.3798562500000002 0.7843958333333334 -1.8989375000000002 0.5227708333333333 -0.5190812499999999 1.1576666666666666 -0.7786458333333334 1.9046875 -0.7786458333333334 0.7468770833333334 0 1.3798562500000002 0.26148125 1.8989375000000002 0.7843958333333334 0.5190812499999999 0.5227708333333333 0.7786458333333334 1.1576666666666666 0.7786458333333334 1.9046875 0 0.7468770833333334 -0.26148125 1.3798562500000002 -0.7843958333333334 1.8989375000000002 -0.5227708333333333 0.5190812499999999 -1.1576666666666666 0.7786458333333334 -1.9046875 0.7786458333333334ZM11.5 18.208333333333336c-2.3319604166666665 0 -4.44029375 -0.66283125 -6.325 -1.9885416666666669C3.2902793750000003 14.894081250000001 1.8847206250000001 13.161127083333334 0.9583333333333334 11.020833333333334c0.9263872916666667 -2.14029375 2.331946041666667 -3.8732479166666667 4.216666666666667 -5.198958333333334C7.0597062500000005 4.496178958333334 9.168039583333332 3.8333333333333335 11.5 3.8333333333333335s4.44029375 0.662845625 6.325 1.9885416666666669c1.88470625 1.325710416666667 3.29029375 3.0586645833333335 4.216666666666667 5.198958333333334 -0.9263729166666667 2.14029375 -2.3319604166666665 3.8732479166666667 -4.216666666666667 5.198958333333334C15.94029375 17.545502083333336 13.831960416666668 18.208333333333336 11.5 18.208333333333336Zm-0.004072916666666667 -1.4375c1.9353541666666667 0 3.7136375000000004 -0.52310625 5.334802083333334 -1.5692708333333334 1.6211645833333335 -1.0461645833333333 2.85501875 -2.439772916666667 3.7015625 -4.180729166666667 -0.84654375 -1.7409562500000002 -2.0790083333333333 -3.1345645833333333 -3.697489583333333 -4.180729166666667S13.439427083333333 5.270833333333334 11.504072916666669 5.270833333333334s-3.7136375000000004 0.52310625 -5.334802083333334 1.5692708333333334C4.548091875 7.886268750000001 3.3062500000000004 9.279877083333334 2.44375 11.020833333333334c0.8625 1.7409562500000002 2.1029810416666663 3.1345645833333333 3.7214479166666665 4.180729166666667C7.7836791666666665 16.247727083333334 9.560572916666667 16.770833333333336 11.495927083333333 16.770833333333336Z" stroke-width="1"></path></svg>