<svg xmlns="http://www.w3.org/2000/svg" fill="none" viewBox="-0.5 -0.5 24 24" id="zoom-reset.svg" ><path d="m8.577083333333333 11.308429166666668 -2.323958333333333 -2.3 1.00625 -1.00625 1.2937500000000002 1.2937500000000002 2.3958333333333335 -2.3958333333333335 1.00625 1.00625 -3.3781250000000003 3.402083333333333Zm10.49375 8.792708333333334 -6.301041666666667 -6.301041666666667c-0.4791666666666667 0.41529375 -1.037875 0.7387312500000001 -1.676125 0.9703125 -0.6382500000000001 0.23158125000000002 -1.3173729166666666 0.34739583333333335 -2.0374166666666667 0.34739583333333335 -1.7275395833333336 0 -3.18966875 -0.5989583333333334 -4.386291666666667 -1.796875 -1.1966372916666665 -1.1979166666666667 -1.7949583333333334 -2.6434187500000004 -1.7949583333333334 -4.336458333333334 0 -1.6930395833333334 0.5989583333333334 -3.138541666666667 1.796875 -4.336458333333334 1.1979166666666667 -1.1979166666666667 2.6473958333333334 -1.796875 4.3484375 -1.796875 1.7010416666666666 0 3.14654375 0.5989583333333334 4.336458333333334 1.796875 1.1899145833333333 1.1979166666666667 1.7848958333333333 2.6446166666666664 1.7848958333333333 4.340052083333333 0 0.68439375 -0.11178958333333334 1.3460750000000001 -0.33541666666666664 1.9849479166666668 -0.22362708333333334 0.6388729166666667 -0.5590437500000001 1.23783125 -1.00625 1.796875l6.325 6.277083333333334 -1.0541666666666667 1.0541666666666667Zm-10.038541666666667 -6.420833333333333c1.2977270833333334 0 2.4008645833333335 -0.4591854166666667 3.3093645833333336 -1.3776041666666667 0.90835625 -0.9184187500000001 1.3625104166666668 -2.0244791666666666 1.3625104166666668 -3.318229166666667s-0.4541541666666667 -2.399810416666667 -1.3625104166666668 -3.318229166666667c-0.9085 -0.918404375 -2.0116375 -1.3776041666666667 -3.3093645833333336 -1.3776041666666667 -1.3110000000000002 0 -2.425397916666667 0.4591997916666667 -3.3431458333333337 1.3776041666666667C4.771383541666667 6.584660416666667 4.3125 7.690720833333334 4.3125 8.984470833333333s0.45888354166666667 2.399810416666667 1.3766458333333336 3.318229166666667c0.9177479166666667 0.9184187500000001 2.0321458333333333 1.3776041666666667 3.3431458333333337 1.3776041666666667Z" stroke-width="1"></path></svg>